<svg xmlns="http://www.w3.org/2000/svg" viewBox="0 0 128 128">
  <defs>
    <filter id="shadow" x="-20%" y="-20%" width="140%" height="140%">
      <feGaussianBlur in="SourceAlpha" stdDeviation="2"/>
      <feOffset dx="0" dy="2" result="off"/>
      <feColorMatrix in="off" type="matrix" values="0 0 0 0 0   0 0 0 0 0   0 0 0 0 0   0 0 0 .28 0"/>
      <feBlend in="SourceGraphic"/>
    </filter>
  </defs>
  <g filter="url(#shadow)">
    <rect x="14" y="22" width="100" height="80" rx="18" fill="#283041" stroke="#161b25" stroke-width="2"/>
    <path d="M14 40c0-9.94 8.06-18 18-18h64c9.94 0 18 8.06 18 18v6H14z" fill="#424e62"/>
    <circle cx="26" cy="32" r="4" fill="#ff7878"/>
    <circle cx="37" cy="32" r="4" fill="#ffca57"/>
    <circle cx="48" cy="32" r="4" fill="#58d68d"/>
    <rect x="22" y="46" width="84" height="48" rx="10" fill="#e8edf5"/>
    <circle cx="50" cy="58" r="12" fill="#7a879b"/>
    <circle cx="57" cy="56" r="12" fill="#e8edf5"/>
    <rect x="64" y="58" width="42" height="7" rx="3" fill="#b4bcc9"/>
    <rect x="64" y="73" width="32" height="7" rx="3" fill="#b4bcc9"/>
    <rect x="64" y="88" width="38" height="7" rx="3" fill="#b4bcc9"/>
    <rect x="72" y="72" width="54" height="28" rx="14" fill="#424e62"/>
    <circle cx="85" cy="86" r="4" fill="#ffd666"/>
    <line x1="85" y1="77" x2="85" y2="75" stroke="#ffd666" stroke-width="2"/>
    <line x1="85" y1="97" x2="85" y2="95" stroke="#ffd666" stroke-width="2"/>
    <line x1="76" y1="86" x2="74" y2="86" stroke="#ffd666" stroke-width="2"/>
    <line x1="96" y1="86" x2="94" y2="86" stroke="#ffd666" stroke-width="2"/>
    <line x1="79" y1="80" x2="77" y2="78" stroke="#ffd666" stroke-width="2"/>
    <line x1="91" y1="92" x2="93" y2="94" stroke="#ffd666" stroke-width="2"/>
    <line x1="79" y1="92" x2="77" y2="94" stroke="#ffd666" stroke-width="2"/>
    <line x1="91" y1="80" x2="93" y2="78" stroke="#ffd666" stroke-width="2"/>
    <circle cx="112" cy="86" r="11" fill="#dce2eb" stroke="#98a1af"/>
    <line x1="107" y1="86" x2="117" y2="86" stroke="#5c6678" stroke-width="2.5" stroke-linecap="round"/>
  </g>
</svg>